<?xml version="1.0" encoding="UTF-8" standalone="no"?>
<svg
   xmlns:dc="http://purl.org/dc/elements/1.1/"
   xmlns:cc="http://creativecommons.org/ns#"
   xmlns:rdf="http://www.w3.org/1999/02/22-rdf-syntax-ns#"
   xmlns:svg="http://www.w3.org/2000/svg"
   xmlns="http://www.w3.org/2000/svg"
   xmlns:sodipodi="http://sodipodi.sourceforge.net/DTD/sodipodi-0.dtd"
   xmlns:inkscape="http://www.inkscape.org/namespaces/inkscape"
   width="29.347mm"
   height="29.347mm"
   version="1.1"
   viewBox="0 0 29.347 29.347"
   id="svg36"
   sodipodi:docname="logo.svg"
   inkscape:version="1.0.1 (3bc2e813f5, 2020-09-07)">
  <sodipodi:namedview
     pagecolor="#ffffff"
     bordercolor="#666666"
     borderopacity="1"
     objecttolerance="10"
     gridtolerance="10"
     guidetolerance="10"
     inkscape:pageopacity="0"
     inkscape:pageshadow="2"
     inkscape:window-width="1920"
     inkscape:window-height="1051"
     id="namedview38"
     showgrid="false"
     inkscape:zoom="0.67865977"
     inkscape:cx="55.458898"
     inkscape:cy="55.458898"
     inkscape:window-x="-9"
     inkscape:window-y="-9"
     inkscape:window-maximized="1"
     inkscape:current-layer="svg36" />
  <defs
     id="defs10">
    <clipPath
       id="clipPath1825">
      <rect
         x="6254.5"
         y="477.75"
         width="816.9"
         height="396.47"
         fill-opacity="0"
         stroke="#000"
         stroke-dashoffset="100"
         stroke-linejoin="round"
         stroke-width=".74791"
         style="paint-order:fill markers stroke"
         id="rect2" />
    </clipPath>
    <linearGradient
       id="linearGradient1925"
       x1="-10716"
       x2="-10715"
       y1="-5516.9"
       y2="-5798.2"
       gradientTransform="matrix(.10613 0 0 .10613 1151.7 615.18)"
       gradientUnits="userSpaceOnUse">
      <stop
         stop-color="#7d4a2b"
         offset="0"
         id="stop5" />
      <stop
         stop-color="#f3d277"
         offset="1"
         id="stop7" />
    </linearGradient>
  </defs>
  <metadata
     id="metadata12">
    <rdf:RDF>
      <cc:Work
         rdf:about="">
        <dc:format>image/svg+xml</dc:format>
        <dc:type
           rdf:resource="http://purl.org/dc/dcmitype/StillImage" />
        <dc:title />
      </cc:Work>
    </rdf:RDF>
  </metadata>
  <path
     d="m14.655 2.9218e-6a14.674 14.674 0 0 0-14.655 14.618h29.347a14.674 14.674 0 0 0-14.673-14.618 14.674 14.674 0 0 0-0.01852 0zm-14.614 15.773a14.674 14.674 0 0 0 0.15134 1.2718h28.961a14.674 14.674 0 0 0 0.15198-1.2718zm0.45987 2.7022a14.674 14.674 0 0 0 0.40412 1.2718h27.536a14.674 14.674 0 0 0 0.40404-1.2718zm1.1591 2.9776a14.674 14.674 0 0 0 0.74618 1.2718h24.534a14.674 14.674 0 0 0 0.7462-1.2718zm2.3053 3.2525a14.674 14.674 0 0 0 1.3523 1.2717h18.711a14.674 14.674 0 0 0 1.3524-1.2717zm5.101 3.5274a14.674 14.674 0 0 0 5.6069 1.1142 14.674 14.674 0 0 0 5.6074-1.1142z"
     fill="url(#linearGradient1925)"
     stroke-width="0"
     style="paint-order:fill markers stroke"
     id="path34" />
</svg>
