<?xml version="1.0" encoding="UTF-8"?>
<svg width="23.812mm" height="23.812mm" version="1.1" viewBox="0 0 23.812 23.812" xmlns="http://www.w3.org/2000/svg" xmlns:cc="http://creativecommons.org/ns#" xmlns:dc="http://purl.org/dc/elements/1.1/" xmlns:rdf="http://www.w3.org/1999/02/22-rdf-syntax-ns#">
 <metadata>
  <rdf:RDF>
   <cc:Work rdf:about="">
    <dc:format>image/svg+xml</dc:format>
    <dc:type rdf:resource="http://purl.org/dc/dcmitype/StillImage"/>
    <dc:title/>
   </cc:Work>
  </rdf:RDF>
 </metadata>
 <g transform="translate(-41.877 -103.45)">
  <g transform="rotate(180 53.783 115.35)">
   <g transform="matrix(.022703 0 0 .022703 49.183 110.22)" fill="#fff" stroke-width="11.654">
    <path d="m345.44 248.29-194.29 194.28c-12.359 12.365-32.397 12.365-44.75 0-12.354-12.354-12.354-32.391 0-44.744l171.91-171.91-171.91-171.9c-12.354-12.359-12.354-32.394 0-44.748 12.354-12.359 32.391-12.359 44.75 0l194.29 194.28c6.177 6.18 9.262 14.271 9.262 22.366 0 8.099-3.091 16.196-9.267 22.373z" fill="#fff" stroke-width="175.53"/>
   </g>
   <circle cx="53.783" cy="115.35" r="11.642" fill-opacity="0" stroke="#fff" stroke-dashoffset="100" stroke-linecap="round" stroke-linejoin="round" stroke-width=".52917" style="paint-order:fill markers stroke"/>
  </g>
 </g>
</svg>
